<svg id="visa" xmlns="http://www.w3.org/2000/svg" width="37.827" height="11.446" viewBox="0 0 37.827 11.446">
  <path id="Trazado_1468" data-name="Trazado 1468" d="M184.8,191.187l1.921-10.787h3l-1.861,10.787Z" transform="translate(-170.93 -180.041)" fill="#3c58bf"/>
  <path id="Trazado_1469" data-name="Trazado 1469" d="M184.8,191.187l2.462-10.787h2.462l-1.861,10.787Z" transform="translate(-170.93 -180.041)" fill="#293688"/>
  <path id="Trazado_1470" data-name="Trazado 1470" d="M257.187,176.079a7.629,7.629,0,0,0-2.762-.479c-3,0-5.164,1.5-5.164,3.655,0,1.618,1.5,2.457,2.7,3s1.561.9,1.561,1.378c0,.719-.961,1.079-1.8,1.079a6.537,6.537,0,0,1-2.882-.6l-.42-.18-.42,2.457a9.753,9.753,0,0,0,3.423.6c3.182,0,5.284-1.5,5.284-3.775,0-1.258-.781-2.217-2.582-3-1.081-.539-1.741-.839-1.741-1.378,0-.479.54-.959,1.741-.959a5.517,5.517,0,0,1,2.282.419l.3.12.48-2.337Z" transform="translate(-229.386 -175.6)" fill="#3c58bf"/>
  <path id="Trazado_1471" data-name="Trazado 1471" d="M257.187,176.079a7.629,7.629,0,0,0-2.762-.479c-3,0-4.623,1.5-4.623,3.655a3.133,3.133,0,0,0,2.162,3c1.2.539,1.561.9,1.561,1.378,0,.719-.961,1.079-1.8,1.079a6.537,6.537,0,0,1-2.882-.6l-.42-.18-.42,2.457a9.753,9.753,0,0,0,3.423.6c3.182,0,5.284-1.5,5.284-3.775,0-1.258-.781-2.217-2.582-3-1.081-.539-1.741-.839-1.741-1.378,0-.479.54-.959,1.741-.959a5.517,5.517,0,0,1,2.282.419l.3.12.48-2.337Z" transform="translate(-229.386 -175.6)" fill="#293688"/>
  <path id="Trazado_1472" data-name="Trazado 1472" d="M364.464,180.4c-.721,0-1.261.06-1.561.779l-4.5,10.008h3.242l.6-1.8h3.843l.36,1.8h2.882L366.806,180.4Zm-1.381,7.191c.18-.539,1.2-3.176,1.2-3.176s.24-.659.42-1.079l.18,1.019s.6,2.7.72,3.3h-2.522Z" transform="translate(-331.501 -180.041)" fill="#3c58bf"/>
  <path id="Trazado_1473" data-name="Trazado 1473" d="M365.185,180.4c-.721,0-1.261.06-1.561.779L358.4,191.187h3.242l.6-1.8h3.843l.36,1.8h2.882L366.806,180.4Zm-2.1,7.191c.24-.6,1.2-3.176,1.2-3.176s.24-.659.42-1.079l.18,1.019s.6,2.7.72,3.3h-2.522Z" transform="translate(-331.501 -180.041)" fill="#293688"/>
  <path id="Trazado_1474" data-name="Trazado 1474" d="M55.7,188.691l-.3-1.558a8.693,8.693,0,0,0-4.2-4.734l2.7,9.588h3.242L62.008,181.2H58.765Z" transform="translate(-47.357 -180.781)" fill="#3c58bf"/>
  <path id="Trazado_1475" data-name="Trazado 1475" d="M55.7,188.691l-.3-1.558a8.693,8.693,0,0,0-4.2-4.734l2.7,9.588h3.242L62.008,181.2H59.366Z" transform="translate(-47.357 -180.781)" fill="#293688"/>
  <path id="Trazado_1476" data-name="Trazado 1476" d="M0,180.4l.54.12c3.843.9,6.485,3.176,7.505,5.873L6.965,181.3c-.18-.719-.721-.9-1.381-.9Z" transform="translate(0 -180.041)" fill="#ffbc00"/>
  <path id="Trazado_1477" data-name="Trazado 1477" d="M0,180.4H0c3.843.9,7.025,3.236,8.046,5.933l-1.021-4.255a1.465,1.465,0,0,0-1.441-1.139Z" transform="translate(0 -180.041)" fill="#f7981d"/>
  <path id="Trazado_1478" data-name="Trazado 1478" d="M0,180.4H0c3.843.9,7.025,3.236,8.046,5.933L7.325,184a2.114,2.114,0,0,0-1.261-1.738Z" transform="translate(0 -180.041)" fill="#ed7c00"/>
  <g id="Grupo_1602" data-name="Grupo 1602" transform="translate(3.903 1.558)">
    <path id="Trazado_1479" data-name="Trazado 1479" d="M59.445,202.393,57.4,200.355l-.961,2.277-.24-1.5A8.692,8.692,0,0,0,52,196.4l2.7,9.588h3.242Z" transform="translate(-52 -196.4)" fill="#051244"/>
    <path id="Trazado_1480" data-name="Trazado 1480" d="M187.862,291.837,185.28,289.2l-.48,2.637Z" transform="translate(-174.833 -282.249)" fill="#051244"/>
    <path id="Trazado_1481" data-name="Trazado 1481" d="M253.224,274.8h0c.24.24.36.419.3.659,0,.719-.961,1.079-1.8,1.079a6.537,6.537,0,0,1-2.882-.6l-.42-.18-.42,2.457a9.751,9.751,0,0,0,3.422.6,5.952,5.952,0,0,0,4.383-1.5Z" transform="translate(-233.289 -268.927)" fill="#051244"/>
    <path id="Trazado_1482" data-name="Trazado 1482" d="M364,227.45h2.822l.6-1.8h3.843l.36,1.8h2.882l-1.021-4.375-3.6-3.476.18.959s.6,2.7.721,3.3h-2.522c.24-.6,1.2-3.176,1.2-3.176s.24-.659.42-1.079" transform="translate(-340.583 -217.862)" fill="#051244"/>
  </g>
</svg>
