<svg xmlns="http://www.w3.org/2000/svg" width="11.467" height="14.334" viewBox="0 0 11.467 14.334">
  <g id="headset" transform="translate(-4.5)">
    <path id="Trazado_52860" data-name="Trazado 52860" d="M10.234.956A4.778,4.778,0,0,0,5.456,5.734v4.3H4.5v-4.3a5.734,5.734,0,1,1,11.467,0v4.3h-.956v-4.3A4.778,4.778,0,0,0,10.234.956Z" fill="#e71618"/>
    <path id="Trazado_52861" data-name="Trazado 52861" d="M13.1,16.706a.956.956,0,0,1,.956-.956h1.911v3.822a.956.956,0,0,1-.956.956h-.956a.956.956,0,0,1-.956-.956Zm-5.734,0a.956.956,0,0,0-.956-.956H4.5v3.822a.956.956,0,0,0,.956.956h.956a.956.956,0,0,0,.956-.956Z" transform="translate(0 -9.061)" fill="#e71618"/>
    <path id="Trazado_52862" data-name="Trazado 52862" d="M22.609,19.125a.478.478,0,0,1,.478.478V22.47A2.389,2.389,0,0,1,20.7,24.859H17.353a.478.478,0,1,1,0-.956H20.7a1.433,1.433,0,0,0,1.433-1.433V19.6A.478.478,0,0,1,22.609,19.125Z" transform="translate(-7.119 -11.002)" fill="#e71618"/>
    <path id="Trazado_52863" data-name="Trazado 52863" d="M14.625,30.206a.956.956,0,0,1,.956-.956h.956a.956.956,0,1,1,0,1.911h-.956A.956.956,0,0,1,14.625,30.206Z" transform="translate(-5.825 -16.827)" fill="#e71618"/>
  </g>
</svg>
