<svg id="Grupo_15702" data-name="Grupo 15702" xmlns="http://www.w3.org/2000/svg" width="23.006" height="15.922" viewBox="0 0 23.006 15.922">
  <path id="Trazado_52775" data-name="Trazado 52775" d="M171.154,102.574c0-4.145-5.15-7.523-11.5-7.523s-11.5,3.379-11.5,7.523c0,.107,0,.4,0,.44,0,4.4,4.5,7.958,11.5,7.958,7.044,0,11.5-3.56,11.5-7.958Z" transform="translate(-148.148 -95.051)" fill="#08286e"/>
  <path id="Trazado_52776" data-name="Trazado 52776" d="M172.958,104.807c0,3.908-4.952,7.075-11.06,7.075s-11.06-3.168-11.06-7.075,4.951-7.076,11.06-7.076S172.958,100.9,172.958,104.807Z" transform="translate(-150.393 -97.287)" fill="#0090df"/>
  <g id="Grupo_15695" data-name="Grupo 15695" transform="translate(0.529 2.727)">
    <path id="Trazado_52777" data-name="Trazado 52777" d="M195.076,114.07c-.006.011-.116.125-.045.217a1.382,1.382,0,0,0,1.259.229,3.649,3.649,0,0,0,1.144-.724,4.576,4.576,0,0,1,1.306-.833,1.492,1.492,0,0,1,.952-.025,2.932,2.932,0,0,1,.868.506c.757.569,3.8,3.225,4.325,3.684a26.26,26.26,0,0,1,4.863-1.565,6.026,6.026,0,0,0-2.309-3.632,7.1,7.1,0,0,1-5.99.1,5.8,5.8,0,0,0-2.263-.514,4.054,4.054,0,0,0-3.144,1.519Z" transform="translate(-187.772 -111.509)" fill="#fff"/>
    <path id="Trazado_52778" data-name="Trazado 52778" d="M168.33,118.343c-.036-.032-3.578-3.131-4.381-3.734a1.963,1.963,0,0,0-.994-.472,1.355,1.355,0,0,0-.473.045,4.284,4.284,0,0,0-1.295.771,3.691,3.691,0,0,1-1.264.782,2.046,2.046,0,0,1-1.394-.209.617.617,0,0,1-.231-.254.428.428,0,0,1,.118-.463l.977-1.057c.114-.113.228-.227.345-.339a6.355,6.355,0,0,0-.891.2,3.88,3.88,0,0,1-1.039.194,9.849,9.849,0,0,1-1.061-.166,15.834,15.834,0,0,1-2.821-1.019,6.25,6.25,0,0,0-2.587,3.753c.2.053.521.149.656.179,3.145.7,4.124,1.42,4.3,1.57a1.041,1.041,0,0,1,1.632.1,1.189,1.189,0,0,1,.75-.264,1.4,1.4,0,0,1,.45.079,1.033,1.033,0,0,1,.633.572,1.049,1.049,0,0,1,.438-.093,1.32,1.32,0,0,1,.523.115,1.117,1.117,0,0,1,.617,1.248,1.079,1.079,0,0,1,.125-.007,1.248,1.248,0,0,1,1.246,1.247,1.235,1.235,0,0,1-.149.589,1.978,1.978,0,0,0,1.083.29.692.692,0,0,0,.507-.221c.031-.044.064-.1.033-.133l-.887-.986s-.146-.138-.1-.191.14.024.2.077c.452.377,1,.946,1,.946s.046.078.25.115a.922.922,0,0,0,.7-.164,1.06,1.06,0,0,0,.154-.158s-.006.007-.01.008a.472.472,0,0,0-.025-.584l-1.036-1.163s-.148-.137-.1-.192.141.024.205.078c.328.274.792.739,1.236,1.174a.844.844,0,0,0,.994-.035.713.713,0,0,0,.368-.649.741.741,0,0,0-.219-.432l-1.415-1.423s-.149-.128-.1-.192.14.024.2.077c.451.377,1.671,1.5,1.671,1.5a.859.859,0,0,0,.96-.019.642.642,0,0,0,.316-.507A.749.749,0,0,0,168.33,118.343Z" transform="translate(-151.341 -112.438)" fill="#fff"/>
    <path id="Trazado_52779" data-name="Trazado 52779" d="M186.467,147.475a3.153,3.153,0,0,0-.491.109c-.017-.012.013-.1.034-.151s.31-.92-.394-1.222a.83.83,0,0,0-.982.147c-.03.031-.043.028-.047-.011a.777.777,0,0,0-.546-.722,1.066,1.066,0,0,0-1.2.428.769.769,0,1,0-.229.654s.006.011,0,.026a1.015,1.015,0,0,0,.634,1.167.757.757,0,0,0,.744-.115c.061-.043.071-.025.062.032a.724.724,0,0,0,.542.777.688.688,0,0,0,.806-.15c.069-.063.087-.053.091.044a.971.971,0,1,0,.97-1.015Z" transform="translate(-176.342 -139.768)" fill="#fff"/>
  </g>
  <path id="Trazado_52780" data-name="Trazado 52780" d="M168.135,115.19c-1.091-.952-3.613-3.145-4.3-3.657a3,3,0,0,0-.89-.518,1.474,1.474,0,0,0-.437-.068,1.842,1.842,0,0,0-.555.093,4.551,4.551,0,0,0-1.307.827l-.022.017a3.6,3.6,0,0,1-1.115.71,1.883,1.883,0,0,1-.413.046,1.06,1.06,0,0,1-.776-.25c-.019-.025-.007-.065.038-.122l.006-.008.96-1.034a3.994,3.994,0,0,1,3.1-1.5h.082a5.792,5.792,0,0,1,2.149.509,6.654,6.654,0,0,0,2.929.7,7.647,7.647,0,0,0,3.215-.77c-.125-.105-.255-.207-.389-.308a7.078,7.078,0,0,1-2.824.641,6.23,6.23,0,0,1-2.741-.66,6.169,6.169,0,0,0-2.339-.553h-.092a4.061,4.061,0,0,0-2.667.947,5.271,5.271,0,0,0-1.331.243,3.6,3.6,0,0,1-.938.18c-.12,0-.337-.011-.356-.012a18.254,18.254,0,0,1-3.371-.934c-.137.1-.269.2-.4.3a16.658,16.658,0,0,0,3.655,1.057c.15.01.31.027.47.027a4,4,0,0,0,1.058-.2c.2-.057.428-.119.665-.165l-.189.188-.975,1.055a.49.49,0,0,0-.134.539.684.684,0,0,0,.257.285,2.033,2.033,0,0,0,1.035.263,1.88,1.88,0,0,0,.413-.043,3.736,3.736,0,0,0,1.292-.795,4.3,4.3,0,0,1,1.27-.76,1.445,1.445,0,0,1,.354-.049.69.69,0,0,1,.092.005,1.907,1.907,0,0,1,.961.458c.8.6,4.343,3.7,4.378,3.731a.681.681,0,0,1,.213.521.568.568,0,0,1-.283.452.863.863,0,0,1-.465.145.765.765,0,0,1-.41-.119c-.013-.011-1.227-1.124-1.673-1.5a.376.376,0,0,0-.21-.112.116.116,0,0,0-.093.044c-.07.086.008.206.1.285l1.418,1.425a.673.673,0,0,1,.2.384.647.647,0,0,1-.337.588.914.914,0,0,1-.5.166.731.731,0,0,1-.4-.123l-.2-.2c-.372-.366-.756-.744-1.036-.978a.377.377,0,0,0-.211-.11.121.121,0,0,0-.089.038c-.032.036-.054.1.026.206a.713.713,0,0,0,.072.08l1.035,1.162a.4.4,0,0,1,.023.5l-.037.046a1.046,1.046,0,0,1-.1.093.828.828,0,0,1-.506.16.791.791,0,0,1-.14-.012.352.352,0,0,1-.2-.086l-.012-.013c-.057-.059-.578-.591-1.01-.951a.356.356,0,0,0-.2-.108.123.123,0,0,0-.093.042c-.086.093.043.233.1.285l.883.973a.2.2,0,0,1-.033.059c-.031.044-.139.151-.459.191a.889.889,0,0,1-.117.007,2.015,2.015,0,0,1-.863-.256,1.317,1.317,0,0,0-1.19-1.877h-.048a1.169,1.169,0,0,0-.668-1.236,1.387,1.387,0,0,0-.55-.121,1.118,1.118,0,0,0-.4.073,1.107,1.107,0,0,0-.645-.547,1.44,1.44,0,0,0-.472-.083,1.244,1.244,0,0,0-.736.236,1.109,1.109,0,0,0-1.652-.093,11.8,11.8,0,0,0-4.281-1.564c-.141-.032-.465-.125-.664-.183a4.679,4.679,0,0,0-.075.479s.538.129.644.153a11.1,11.1,0,0,1,4.13,1.48,1.118,1.118,0,0,0,1.235,1.527,1.3,1.3,0,0,0,.842.973,1.108,1.108,0,0,0,.4.077,1.028,1.028,0,0,0,.254-.032,1.294,1.294,0,0,0,1.131.739.981.981,0,0,0,.341-.061,1.314,1.314,0,0,0,2.16.417,2.48,2.48,0,0,0,1.114.333,1.428,1.428,0,0,0,.169-.011,1.02,1.02,0,0,0,.756-.37.557.557,0,0,0,.046-.076,1.275,1.275,0,0,0,.357.056,1.2,1.2,0,0,0,.72-.258.992.992,0,0,0,.425-.618V118.3a1.187,1.187,0,0,0,.241.025,1.339,1.339,0,0,0,.74-.235,1.067,1.067,0,0,0,.531-.951,1.184,1.184,0,0,0,.244.026,1.278,1.278,0,0,0,.693-.213,1.012,1.012,0,0,0,.482-.784,1.056,1.056,0,0,0-.153-.633,28.661,28.661,0,0,1,4.6-1.439,4.68,4.68,0,0,0-.064-.477A26.356,26.356,0,0,0,168.135,115.19Zm-7,4.047a.9.9,0,0,1-.9-.86c0-.041-.005-.151-.1-.151a.171.171,0,0,0-.11.057.633.633,0,0,1-.442.2.777.777,0,0,1-.291-.063c-.513-.208-.521-.561-.5-.7a.129.129,0,0,0-.018-.108l-.032-.028h-.032a.156.156,0,0,0-.089.036.75.75,0,0,1-.436.155.675.675,0,0,1-.243-.048.943.943,0,0,1-.59-1.093.093.093,0,0,0-.029-.089l-.048-.039-.045.043a.7.7,0,1,1,.208-.594l.024.189.1-.16a.975.975,0,0,1,1.121-.4.709.709,0,0,1,.5.661c.007.092.073.1.085.1a.115.115,0,0,0,.081-.042.709.709,0,0,1,.517-.218,1,1,0,0,1,.387.087c.661.284.361,1.123.357,1.132-.057.139-.059.2-.006.236l.026.012h.019a.468.468,0,0,0,.128-.034,1.132,1.132,0,0,1,.353-.078h0a.9.9,0,1,1,0,1.8Z" transform="translate(-150.48 -106.93)" fill="#08286e"/>
</svg>
