<svg xmlns="http://www.w3.org/2000/svg" width="14.677" height="17.714" viewBox="0 0 14.677 17.714">
  <g id="Grupo_16624" data-name="Grupo 16624" transform="translate(-510.63 -592)">
    <path id="Trazado_52697" data-name="Trazado 52697" d="M76.145,156.46l.007,0a7.339,7.339,0,1,0-10.384,0c0,.005,0,.005.006.008l5.183,5.181Z" transform="translate(447.012 448.066)" fill="#e71618"/>
    <path id="Trazado_52698" data-name="Trazado 52698" d="M107.08,187.405l0,0a5.3,5.3,0,1,0-7.5,0s0,0,0,.006l3.745,3.743Z" transform="translate(414.637 415.681)" fill="#fff"/>
    <path id="Trazado_52699" data-name="Trazado 52699" d="M136.619,216.94l0,0a3.359,3.359,0,1,0-4.752,0s0,0,0,0l2.372,2.371Z" transform="translate(383.723 384.772)" fill="#e71618"/>
    <path id="Trazado_52700" data-name="Trazado 52700" d="M167.5,247.822h0a1.327,1.327,0,1,0-1.877,0h0l.938.937Z" transform="translate(351.404 352.454)" fill="#fff"/>
  </g>
</svg>
